<svg width="1067" height="154" viewBox="0 0 1067 154" fill="none" xmlns="http://www.w3.org/2000/svg">
<path d="M2.5 2.5H1064.5V151.5H2.5V2.5Z" fill="#115796" stroke="black" stroke-width="5"/>
<path d="M86.2866 53.2759L81.8613 92.2754C81.7923 92.6722 81.5767 92.8879 81.2144 92.9224L75.8833 93.1035C75.5037 93.1035 75.314 92.9396 75.314 92.6118L77.229 75.6094L70.6558 75.8423L68.7925 92.2754C68.7407 92.6895 68.5164 92.9051 68.1196 92.9224L62.7886 93.1035C62.409 93.1035 62.2192 92.9396 62.2192 92.6118L66.6704 53.457C66.7394 53.0947 66.9637 52.8963 67.3433 52.8618L72.5449 52.6548C72.9935 52.672 73.2178 52.8791 73.2178 53.2759L71.3286 69.7607L77.9277 69.5278L79.7393 53.457C79.791 53.0775 80.0239 52.8791 80.438 52.8618L85.6138 52.6548C86.0623 52.672 86.2866 52.8791 86.2866 53.2759ZM96.5347 58.8916C95.465 58.8916 94.611 58.5552 93.9727 57.8823C93.3343 57.2095 93.0151 56.3468 93.0151 55.2944C93.0151 54.2248 93.4378 53.2759 94.2832 52.4478C95.1458 51.6024 96.112 51.1797 97.1816 51.1797C98.2513 51.1797 99.1139 51.5161 99.7695 52.189C100.442 52.8618 100.779 53.7331 100.779 54.8027C100.779 55.8551 100.339 56.804 99.459 57.6494C98.5791 58.4775 97.6043 58.8916 96.5347 58.8916ZM99.4072 62.3853L96.043 92.2236C96.0085 92.4652 95.9481 92.6377 95.8618 92.7412C95.7756 92.8447 95.6117 92.9051 95.3701 92.9224L90.1685 93.1035C89.7889 93.069 89.5991 92.9051 89.5991 92.6118L93.0151 62.5146C93.0841 62.1351 93.2998 61.9281 93.6621 61.8936L98.7085 61.7124C99.1743 61.7469 99.4072 61.9712 99.4072 62.3853ZM104.376 102.109C104.376 101.885 104.609 100.79 105.075 98.8228C105.541 96.8732 105.842 94.9668 105.98 93.1035C105.187 92.862 104.583 92.4134 104.169 91.7578C103.755 91.085 103.548 90.2568 103.548 89.2734C103.548 88.29 103.996 87.3584 104.894 86.4785C105.808 85.5986 106.843 85.1587 107.999 85.1587C109.172 85.1587 110.087 85.5555 110.742 86.3491C111.398 87.1427 111.726 88.1175 111.726 89.2734C111.726 91.3265 111.26 93.5866 110.328 96.0537C108.913 99.832 107.826 101.971 107.067 102.472C106.86 102.592 106.136 102.653 104.894 102.653C104.549 102.653 104.376 102.472 104.376 102.109ZM140.865 53.3018L136.44 92.2754C136.388 92.6895 136.164 92.9051 135.767 92.9224L130.436 93.1035C130.056 93.1035 129.867 92.9396 129.867 92.6118L134.344 53.457C134.413 53.0947 134.637 52.8963 135.017 52.8618L140.192 52.6807C140.641 52.6979 140.865 52.9049 140.865 53.3018ZM148.551 64.8696C148.551 64.6453 148.784 63.5584 149.25 61.6089C149.716 59.6421 150.018 57.7271 150.156 55.8638C149.362 55.6222 148.758 55.1737 148.344 54.5181C147.93 53.8452 147.723 53.0171 147.723 52.0337C147.723 51.0503 148.172 50.1187 149.069 49.2388C149.983 48.3589 151.018 47.9189 152.174 47.9189C153.347 47.9189 154.262 48.3158 154.917 49.1094C155.573 49.903 155.901 50.8778 155.901 52.0337C155.901 54.0868 155.435 56.3555 154.503 58.8398C153.089 62.6009 152.002 64.723 151.243 65.2061C151.036 65.3441 150.311 65.4131 149.069 65.4131C148.724 65.4131 148.551 65.2319 148.551 64.8696ZM169.177 62.3853L168.892 64.792C171.428 62.5837 173.861 61.4795 176.19 61.4795C178.536 61.4795 180.175 62.6095 181.107 64.8696C183.695 62.6095 186.205 61.4795 188.638 61.4795C191.64 61.4795 193.572 63.0667 194.435 66.2412C194.676 67.1211 194.797 67.9406 194.797 68.6997C194.797 69.4588 194.771 70.0713 194.719 70.5371L192.235 92.2236C192.166 92.6549 191.95 92.8879 191.588 92.9224L186.36 93.1035C185.981 93.069 185.791 92.9051 185.791 92.6118L188.146 72.1157C188.215 71.5291 188.25 71.1237 188.25 70.8994C188.25 69.4847 187.913 68.5272 187.24 68.0269C186.567 67.5093 185.731 67.2505 184.73 67.2505C183.747 67.2505 182.763 67.4316 181.78 67.7939C181.832 68.208 181.857 68.6566 181.857 69.1396C181.857 69.6055 181.832 70.0713 181.78 70.5371L179.295 92.2236C179.226 92.6549 179.011 92.8879 178.648 92.9224L173.421 93.1035C173.041 93.069 172.852 92.9051 172.852 92.6118L175.207 72.1157C175.258 71.6672 175.284 71.2617 175.284 70.8994C175.284 69.4847 174.948 68.5272 174.275 68.0269C173.619 67.5093 172.774 67.2505 171.739 67.2505C170.721 67.2505 169.66 67.4661 168.556 67.8975L165.812 92.1978C165.743 92.6291 165.528 92.862 165.166 92.8965L159.938 93.1035C159.558 93.069 159.369 92.9051 159.369 92.6118L162.785 62.5146C162.854 62.1351 163.069 61.9281 163.432 61.8936L168.478 61.7124C168.944 61.7297 169.177 61.9539 169.177 62.3853ZM227.171 53.2759L230.199 92.2495C230.199 92.6463 229.975 92.862 229.526 92.8965L224.118 93.1035C223.755 93.1035 223.574 92.9396 223.574 92.6118L223.186 84.0718L217.312 84.3047L215.371 92.2754C215.319 92.5169 215.25 92.6808 215.164 92.7671C215.077 92.8534 214.922 92.9051 214.698 92.9224L209.341 93.1035C208.996 93.1035 208.823 92.9396 208.823 92.6118L220.184 53.457C220.305 53.0775 220.538 52.8791 220.883 52.8618L226.576 52.6548C226.938 52.672 227.137 52.8791 227.171 53.2759ZM222.28 63.938L218.657 78.7925L222.953 78.6372L222.28 63.938ZM253.18 68.3115L250.411 68.0269C248.168 68.0269 246.287 68.4754 244.769 69.3726L242.207 92.1978C242.138 92.6291 241.922 92.862 241.56 92.8965L236.333 93.1035C235.953 93.069 235.763 92.9051 235.763 92.6118L239.179 62.5146C239.248 62.1351 239.464 61.9281 239.826 61.8936L244.873 61.7124C245.338 61.7297 245.571 61.9539 245.571 62.3853L245.261 65.0508C246.365 63.9294 247.435 63.0581 248.47 62.437C249.505 61.7987 250.54 61.4795 251.575 61.4795C252.628 61.4795 253.43 61.5226 253.982 61.6089C254.344 61.6779 254.525 61.9194 254.525 62.3335C254.525 63.5239 254.327 65.2923 253.93 67.6387C253.844 68.0872 253.594 68.3115 253.18 68.3115ZM263.247 58.8916C262.177 58.8916 261.323 58.5552 260.685 57.8823C260.046 57.2095 259.727 56.3468 259.727 55.2944C259.727 54.2248 260.15 53.2759 260.995 52.4478C261.858 51.6024 262.824 51.1797 263.894 51.1797C264.963 51.1797 265.826 51.5161 266.481 52.189C267.154 52.8618 267.491 53.7331 267.491 54.8027C267.491 55.8551 267.051 56.804 266.171 57.6494C265.291 58.4775 264.316 58.8916 263.247 58.8916ZM266.119 62.3853L262.755 92.2236C262.72 92.4652 262.66 92.6377 262.574 92.7412C262.487 92.8447 262.324 92.9051 262.082 92.9224L256.88 93.1035C256.501 93.069 256.311 92.9051 256.311 92.6118L259.727 62.5146C259.796 62.1351 260.012 61.9281 260.374 61.8936L265.42 61.7124C265.886 61.7469 266.119 61.9712 266.119 62.3853ZM293.396 62.3853L290.031 92.2236C289.979 92.6722 289.755 92.9051 289.358 92.9224L284.131 93.1035C283.769 93.069 283.587 92.9051 283.587 92.6118L284.079 89.0923C283.285 90.438 282.414 91.4731 281.465 92.1978C280.534 92.9224 279.481 93.2847 278.308 93.2847C277.135 93.2847 276.134 93.0863 275.306 92.6895C274.478 92.2754 273.797 91.7406 273.262 91.085C272.744 90.4121 272.321 89.6099 271.994 88.6782C271.39 87.022 271.088 84.7619 271.088 81.8979C271.088 79.0168 271.278 76.5755 271.657 74.5742C272.054 72.5729 272.399 71.0547 272.692 70.0195C272.986 68.9671 273.374 67.8888 273.857 66.7847C274.357 65.6805 274.918 64.7575 275.539 64.0156C276.954 62.3249 278.739 61.4795 280.896 61.4795C282.5 61.4795 283.725 61.8677 284.571 62.644C285.416 63.4032 286.124 64.5332 286.693 66.0342L287.003 62.5146C287.038 62.1351 287.254 61.9281 287.65 61.8936L292.723 61.7124C293.171 61.7469 293.396 61.9712 293.396 62.3853ZM277.609 81.1475C277.609 85.2708 278.714 87.3325 280.922 87.3325C281.888 87.3325 282.673 86.8926 283.277 86.0127C283.881 85.1156 284.398 83.3299 284.83 80.6558C285.278 77.9816 285.502 76.0321 285.502 74.8071C285.502 73.5822 285.494 72.8058 285.477 72.478C285.459 72.1502 285.425 71.7189 285.373 71.1841C285.321 70.632 285.226 70.1748 285.088 69.8125C284.95 69.4329 284.769 69.0534 284.545 68.6738C284.096 67.932 283.372 67.561 282.371 67.561C281.37 67.561 280.577 68.0096 279.99 68.9067C279.404 69.7866 278.946 70.9684 278.619 72.4521C277.946 75.6266 277.609 78.5251 277.609 81.1475ZM307.551 62.3853L307.267 64.7661C309.751 62.575 312.132 61.4795 314.409 61.4795C317.308 61.4795 319.136 63.0667 319.896 66.2412C320.103 67.1038 320.206 67.9233 320.206 68.6997C320.206 69.4588 320.18 70.0713 320.128 70.5371L317.644 92.2236C317.575 92.6549 317.359 92.8879 316.997 92.9224L311.77 93.1035C311.39 93.069 311.2 92.9051 311.2 92.6118L313.555 72.1157C313.607 71.6672 313.633 71.2617 313.633 70.8994C313.633 69.4847 313.296 68.5272 312.624 68.0269C311.968 67.5093 311.131 67.2505 310.113 67.2505C309.095 67.2505 308.034 67.4661 306.93 67.8975L304.161 92.2236C304.092 92.6549 303.876 92.8879 303.514 92.9224L298.287 93.1035C297.907 93.069 297.717 92.9051 297.717 92.6118L301.133 62.5146C301.202 62.1351 301.418 61.9281 301.78 61.8936L306.853 61.7124C307.318 61.7297 307.551 61.9539 307.551 62.3853ZM328.901 93.2847C327.78 93.2847 326.874 92.931 326.184 92.2236C325.511 91.499 325.175 90.5846 325.175 89.4805C325.175 88.359 325.623 87.3584 326.521 86.4785C327.435 85.5986 328.453 85.1587 329.574 85.1587C330.713 85.1587 331.627 85.5124 332.317 86.2197C333.007 86.9271 333.353 87.8415 333.353 88.9629C333.353 90.0843 332.895 91.085 331.981 91.9648C331.067 92.8447 330.04 93.2847 328.901 93.2847ZM362.492 53.3018L358.067 92.2754C358.015 92.6895 357.791 92.9051 357.394 92.9224L352.063 93.1035C351.683 93.1035 351.494 92.9396 351.494 92.6118L355.971 53.457C356.04 53.0947 356.264 52.8963 356.644 52.8618L361.819 52.6807C362.268 52.6979 362.492 52.9049 362.492 53.3018ZM370.178 64.8696C370.178 64.6453 370.411 63.5584 370.877 61.6089C371.343 59.6421 371.645 57.7271 371.783 55.8638C370.989 55.6222 370.385 55.1737 369.971 54.5181C369.557 53.8452 369.35 53.0171 369.35 52.0337C369.35 51.0503 369.799 50.1187 370.696 49.2388C371.61 48.3589 372.645 47.9189 373.801 47.9189C374.974 47.9189 375.889 48.3158 376.544 49.1094C377.2 49.903 377.528 50.8778 377.528 52.0337C377.528 54.0868 377.062 56.3555 376.13 58.8398C374.716 62.6009 373.629 64.723 372.87 65.2061C372.663 65.3441 371.938 65.4131 370.696 65.4131C370.351 65.4131 370.178 65.2319 370.178 64.8696ZM390.804 62.3853L390.519 64.792C393.055 62.5837 395.488 61.4795 397.817 61.4795C400.163 61.4795 401.802 62.6095 402.734 64.8696C405.322 62.6095 407.832 61.4795 410.265 61.4795C413.267 61.4795 415.199 63.0667 416.062 66.2412C416.303 67.1211 416.424 67.9406 416.424 68.6997C416.424 69.4588 416.398 70.0713 416.346 70.5371L413.862 92.2236C413.793 92.6549 413.577 92.8879 413.215 92.9224L407.987 93.1035C407.608 93.069 407.418 92.9051 407.418 92.6118L409.773 72.1157C409.842 71.5291 409.876 71.1237 409.876 70.8994C409.876 69.4847 409.54 68.5272 408.867 68.0269C408.194 67.5093 407.358 67.2505 406.357 67.2505C405.374 67.2505 404.39 67.4316 403.407 67.7939C403.458 68.208 403.484 68.6566 403.484 69.1396C403.484 69.6055 403.458 70.0713 403.407 70.5371L400.922 92.2236C400.853 92.6549 400.638 92.8879 400.275 92.9224L395.048 93.1035C394.668 93.069 394.479 92.9051 394.479 92.6118L396.833 72.1157C396.885 71.6672 396.911 71.2617 396.911 70.8994C396.911 69.4847 396.575 68.5272 395.902 68.0269C395.246 67.5093 394.401 67.2505 393.366 67.2505C392.348 67.2505 391.287 67.4661 390.183 67.8975L387.439 92.1978C387.37 92.6291 387.155 92.862 386.792 92.8965L381.565 93.1035C381.185 93.069 380.996 92.9051 380.996 92.6118L384.412 62.5146C384.481 62.1351 384.696 61.9281 385.059 61.8936L390.105 61.7124C390.571 61.7297 390.804 61.9539 390.804 62.3853ZM455.397 62.3853L452.033 92.2236C451.981 92.6722 451.757 92.9051 451.36 92.9224L446.133 93.1035C445.771 93.069 445.589 92.9051 445.589 92.6118L446.081 89.0923C445.287 90.438 444.416 91.4731 443.467 92.1978C442.536 92.9224 441.483 93.2847 440.31 93.2847C439.137 93.2847 438.136 93.0863 437.308 92.6895C436.48 92.2754 435.799 91.7406 435.264 91.085C434.746 90.4121 434.323 89.6099 433.996 88.6782C433.392 87.022 433.09 84.7619 433.09 81.8979C433.09 79.0168 433.28 76.5755 433.659 74.5742C434.056 72.5729 434.401 71.0547 434.694 70.0195C434.988 68.9671 435.376 67.8888 435.859 66.7847C436.359 65.6805 436.92 64.7575 437.541 64.0156C438.956 62.3249 440.741 61.4795 442.898 61.4795C444.502 61.4795 445.727 61.8677 446.573 62.644C447.418 63.4032 448.125 64.5332 448.695 66.0342L449.005 62.5146C449.04 62.1351 449.256 61.9281 449.652 61.8936L454.725 61.7124C455.173 61.7469 455.397 61.9712 455.397 62.3853ZM439.611 81.1475C439.611 85.2708 440.715 87.3325 442.924 87.3325C443.89 87.3325 444.675 86.8926 445.279 86.0127C445.883 85.1156 446.4 83.3299 446.832 80.6558C447.28 77.9816 447.504 76.0321 447.504 74.8071C447.504 73.5822 447.496 72.8058 447.479 72.478C447.461 72.1502 447.427 71.7189 447.375 71.1841C447.323 70.632 447.228 70.1748 447.09 69.8125C446.952 69.4329 446.771 69.0534 446.547 68.6738C446.098 67.932 445.374 67.561 444.373 67.561C443.372 67.561 442.579 68.0096 441.992 68.9067C441.406 69.7866 440.948 70.9684 440.621 72.4521C439.948 75.6266 439.611 78.5251 439.611 81.1475ZM480.552 60.936L480.474 61.7124L486.219 61.5054C486.633 61.5226 486.84 61.7469 486.84 62.1782L486.116 66.293C486.047 66.707 485.831 66.9227 485.469 66.9399L479.931 67.147L477.395 92.2236C477.36 92.4652 477.3 92.6377 477.213 92.7412C477.127 92.8447 476.963 92.9051 476.722 92.9224L471.494 93.1035C471.115 93.069 470.925 92.9051 470.925 92.6118L473.746 67.1987L471.391 67.3281C470.959 67.3109 470.744 67.0952 470.744 66.6812L471.442 62.5146C471.477 62.1351 471.701 61.9281 472.115 61.8936L474.341 61.8159L474.703 58.6587C475.152 54.7596 476.299 52.0682 478.145 50.5845C479.715 49.325 481.906 48.6953 484.718 48.6953C486.564 48.6953 488.177 48.9023 489.558 49.3164C490.075 49.4889 490.334 49.7563 490.334 50.1187L489.661 54.6475C489.592 55.0615 489.454 55.2686 489.247 55.2686C489.04 55.2686 488.514 55.1478 487.668 54.9062C486.823 54.6475 485.779 54.5181 484.537 54.5181C483.312 54.5181 482.398 55.0184 481.794 56.019C481.207 57.0197 480.793 58.6587 480.552 60.936ZM502.083 92.4565L502.29 90.4639C500.202 92.3444 497.839 93.2847 495.199 93.2847C493.215 93.2847 491.749 92.5601 490.8 91.1108C489.868 89.6616 489.402 87.8501 489.402 85.6763C489.402 85.314 489.437 84.8223 489.506 84.2012L491.964 62.5405C492.016 62.1265 492.232 61.9108 492.611 61.8936L497.839 61.6865C498.201 61.721 498.382 61.9022 498.382 62.23L496.053 82.6484C496.001 83.097 495.976 83.5111 495.976 83.8906C495.976 85.3398 496.252 86.306 496.804 86.7891C497.373 87.2721 498.218 87.5137 499.34 87.5137C500.479 87.5137 501.6 87.298 502.704 86.8667L505.447 62.5405C505.499 62.1265 505.715 61.9108 506.094 61.8936L511.322 61.7124C511.684 61.7469 511.865 61.9281 511.865 62.2559L508.501 92.1978C508.449 92.6118 508.216 92.8361 507.802 92.8706L502.756 93.1035C502.307 93.0863 502.083 92.8706 502.083 92.4565ZM527.393 49.9116L522.631 92.1978C522.596 92.4393 522.536 92.6118 522.45 92.7153C522.363 92.8188 522.2 92.8792 521.958 92.8965L516.756 93.1035C516.377 93.069 516.187 92.9051 516.187 92.6118L520.975 50.0928C521.009 49.8512 521.069 49.6787 521.156 49.5752C521.242 49.4717 521.406 49.4113 521.647 49.394L526.72 49.2129C527.168 49.2646 527.393 49.4976 527.393 49.9116ZM541.522 49.9116L536.761 92.1978C536.726 92.4393 536.666 92.6118 536.58 92.7153C536.493 92.8188 536.329 92.8792 536.088 92.8965L530.886 93.1035C530.507 93.069 530.317 92.9051 530.317 92.6118L535.104 50.0928C535.139 49.8512 535.199 49.6787 535.286 49.5752C535.372 49.4717 535.536 49.4113 535.777 49.394L540.85 49.2129C541.298 49.2646 541.522 49.4976 541.522 49.9116ZM569.472 67.7422L566.547 67.6128C565.719 67.6128 565.064 67.8026 564.581 68.1821C564.115 68.5617 563.882 69.1138 563.882 69.8384C563.882 70.5457 564.011 71.3307 564.27 72.1934C564.615 73.3493 565.21 74.695 566.056 76.2305C566.918 77.766 567.514 78.8529 567.841 79.4912C568.842 81.4753 569.342 83.3644 569.342 85.1587C569.342 87.7638 568.575 89.7738 567.039 91.1885C565.521 92.5859 563.209 93.2847 560.104 93.2847C558.568 93.2847 557.343 93.1984 556.429 93.0259C555.514 92.8706 555.005 92.7498 554.902 92.6636C554.816 92.5601 554.772 92.4048 554.772 92.1978L555.445 87.4102C555.48 86.9788 555.626 86.7632 555.885 86.7632C556.161 86.7632 556.679 86.8581 557.438 87.0479C558.197 87.2376 558.861 87.3325 559.431 87.3325C561.535 87.3325 562.588 86.4958 562.588 84.8223C562.588 83.6318 562.329 82.519 561.812 81.4839C561.311 80.4487 560.759 79.3791 560.155 78.2749C559.569 77.1707 559.111 76.2909 558.784 75.6353C558.456 74.9624 558.111 74.0394 557.749 72.8662C557.403 71.693 557.231 70.5889 557.231 69.5537C557.231 67.1383 557.947 65.1888 559.379 63.7051C560.828 62.2214 562.933 61.4795 565.693 61.4795C567.47 61.4795 568.859 61.5658 569.86 61.7383C570.291 61.8073 570.507 62.0316 570.507 62.4111L569.938 67.0176C569.938 67.5007 569.782 67.7422 569.472 67.7422ZM578.762 61.8159C579.159 58.0203 579.418 56.0622 579.539 55.9414C579.659 55.8034 579.84 55.7257 580.082 55.7085L585.025 55.5273C585.491 55.5618 585.724 55.7775 585.724 56.1743C585.396 58.0894 585.12 59.9268 584.896 61.6865L590.925 61.4795C591.339 61.4967 591.546 61.721 591.546 62.1523L590.822 66.2671C590.753 66.6812 590.537 66.8968 590.175 66.9141L584.249 67.147C583.075 77.7056 582.489 83.5283 582.489 84.6152C582.489 86.6338 583.351 87.6431 585.077 87.6431C585.957 87.6431 586.811 87.505 587.639 87.229C588.467 86.953 588.984 86.8149 589.191 86.8149C589.554 86.8149 589.735 87.0392 589.735 87.4878L589.191 92.0166C589.157 92.2754 589.088 92.4652 588.984 92.5859C588.898 92.7067 588.475 92.8534 587.716 93.0259C586.974 93.1984 585.698 93.2847 583.886 93.2847C581.229 93.2847 579.263 92.6722 577.986 91.4473C576.709 90.2051 576.071 88.359 576.071 85.9092C576.071 83.4593 576.752 77.2311 578.115 67.2246L575.579 67.3281C575.148 67.3109 574.932 67.0952 574.932 66.6812L575.631 62.5146C575.683 62.1178 575.907 61.9108 576.304 61.8936L578.762 61.8159ZM616.934 62.3853L613.569 92.2236C613.518 92.6722 613.293 92.9051 612.896 92.9224L607.669 93.1035C607.307 93.069 607.125 92.9051 607.125 92.6118L607.617 89.0923C606.824 90.438 605.952 91.4731 605.003 92.1978C604.072 92.9224 603.019 93.2847 601.846 93.2847C600.673 93.2847 599.672 93.0863 598.844 92.6895C598.016 92.2754 597.335 91.7406 596.8 91.085C596.282 90.4121 595.86 89.6099 595.532 88.6782C594.928 87.022 594.626 84.7619 594.626 81.8979C594.626 79.0168 594.816 76.5755 595.195 74.5742C595.592 72.5729 595.937 71.0547 596.23 70.0195C596.524 68.9671 596.912 67.8888 597.395 66.7847C597.895 65.6805 598.456 64.7575 599.077 64.0156C600.492 62.3249 602.278 61.4795 604.434 61.4795C606.039 61.4795 607.264 61.8677 608.109 62.644C608.954 63.4032 609.662 64.5332 610.231 66.0342L610.542 62.5146C610.576 62.1351 610.792 61.9281 611.188 61.8936L616.261 61.7124C616.709 61.7469 616.934 61.9712 616.934 62.3853ZM601.147 81.1475C601.147 85.2708 602.252 87.3325 604.46 87.3325C605.426 87.3325 606.211 86.8926 606.815 86.0127C607.419 85.1156 607.936 83.3299 608.368 80.6558C608.816 77.9816 609.041 76.0321 609.041 74.8071C609.041 73.5822 609.032 72.8058 609.015 72.478C608.997 72.1502 608.963 71.7189 608.911 71.1841C608.859 70.632 608.764 70.1748 608.626 69.8125C608.488 69.4329 608.307 69.0534 608.083 68.6738C607.634 67.932 606.91 67.561 605.909 67.561C604.909 67.561 604.115 68.0096 603.528 68.9067C602.942 69.7866 602.485 70.9684 602.157 72.4521C601.484 75.6266 601.147 78.5251 601.147 81.1475ZM639.811 62.2817C640.19 62.4198 640.38 62.7476 640.38 63.2651L639.785 67.9492C639.75 68.2943 639.509 68.4668 639.06 68.4668C638.629 68.4668 638.215 68.3805 637.818 68.208C636.144 67.4661 634.756 67.0952 633.651 67.0952C632.547 67.0952 631.667 67.5524 631.012 68.4668C630.356 69.3812 629.83 70.6924 629.433 72.4004C628.691 75.5921 628.32 78.5078 628.32 81.1475C628.32 85.3916 629.416 87.5137 631.607 87.5137C633.194 87.5137 634.479 87.3153 635.463 86.9185C636.446 86.5044 637.085 86.2974 637.378 86.2974C637.982 86.2974 638.284 86.5562 638.284 87.0737L637.74 91.6284C637.706 91.939 637.637 92.1287 637.533 92.1978C637.447 92.2495 637.326 92.3099 637.171 92.3789C635.083 92.9827 633.117 93.2847 631.271 93.2847C629.442 93.2847 627.993 93.0518 626.923 92.5859C625.87 92.1201 625.034 91.5249 624.413 90.8003C623.792 90.0584 623.291 89.1699 622.912 88.1348C622.239 86.3577 621.902 84.1753 621.902 81.5874C621.902 78.9823 622.066 76.7222 622.394 74.8071C622.739 72.8748 623.093 71.3049 623.455 70.0972C623.835 68.8895 624.335 67.7336 624.956 66.6294C625.577 65.508 626.302 64.585 627.13 63.8604C628.941 62.2731 631.34 61.4795 634.324 61.4795C636.326 61.4795 638.154 61.7469 639.811 62.2817ZM664.344 92.4565C664.344 92.7671 664.111 92.9224 663.645 92.9224L658.133 93.1035C657.874 93.0863 657.684 92.9224 657.563 92.6118L652.284 77.7314L650.654 92.2236C650.619 92.4652 650.559 92.6377 650.473 92.7412C650.386 92.8447 650.222 92.9051 649.981 92.9224L644.779 93.1035C644.4 93.069 644.21 92.9051 644.21 92.6118L648.998 50.0928C649.032 49.8512 649.092 49.6787 649.179 49.5752C649.265 49.4717 649.429 49.4113 649.67 49.394L654.743 49.2129C655.191 49.2646 655.416 49.4976 655.416 49.9116L652.465 76.1011L659.349 62.5405C659.556 62.1265 659.841 61.9108 660.203 61.8936L665.56 61.7124C665.991 61.7642 666.207 61.9626 666.207 62.3076C666.207 62.4974 666.173 62.6699 666.104 62.8252L658.366 76.2563L664.266 92.146C664.318 92.2668 664.344 92.3703 664.344 92.4565ZM700.781 85.0552L706.138 62.5146C706.242 62.1178 706.466 61.9108 706.811 61.8936L711.573 61.7124C712.021 61.7469 712.246 61.9712 712.246 62.3853L702.955 92.2236C702.834 92.6549 702.61 92.8879 702.282 92.9224L697.081 93.1035C696.787 93.0863 696.597 92.9224 696.511 92.6118L695.476 74.6519L690.688 92.2236C690.585 92.6722 690.369 92.9051 690.042 92.9224L684.84 93.1035C684.547 93.0863 684.357 92.9224 684.271 92.6118L681.631 62.5146C681.683 62.1178 681.898 61.9108 682.278 61.8936L687.091 61.7124C687.488 61.7297 687.704 61.9539 687.738 62.3853L688.592 84.874L693.846 62.5146C693.915 62.1523 694.148 61.9453 694.544 61.8936L698.789 61.7383C699.22 61.7555 699.453 61.9798 699.487 62.4111L700.781 85.0552ZM715.895 88.1606C715.498 87.1255 715.222 86.1076 715.066 85.1069C714.928 84.089 714.859 82.7002 714.859 80.9404C714.859 79.1807 715.049 77.0068 715.429 74.4189C716.688 65.7926 720.604 61.4795 727.178 61.4795C729.714 61.4795 731.655 62.3507 733 64.0933C734.346 65.8358 735.019 68.0959 735.019 70.8735C735.019 73.6512 734.847 76.3512 734.501 78.9736C734.45 79.4395 734.182 79.681 733.699 79.6982L720.915 80.1382C720.898 80.397 720.889 80.742 720.889 81.1733C720.889 83.1229 721.226 84.667 721.898 85.8057C722.589 86.9443 723.624 87.5137 725.004 87.5137C726.384 87.5137 727.661 87.3153 728.834 86.9185C730.024 86.5044 730.723 86.2974 730.93 86.2974C731.137 86.2974 731.318 86.3664 731.474 86.5044C731.629 86.6424 731.707 86.8322 731.707 87.0737L731.189 91.6284C731.172 91.8872 731.12 92.0597 731.034 92.146C730.965 92.215 730.818 92.2926 730.594 92.3789C728.506 92.9827 726.496 93.2847 724.564 93.2847C722.632 93.2847 721.131 93.0518 720.061 92.5859C718.991 92.1201 718.129 91.5249 717.473 90.8003C716.835 90.0584 716.309 89.1785 715.895 88.1606ZM721.536 73.6426L721.303 75.2988L728.058 74.9624C728.351 74.9451 728.541 74.8934 728.627 74.8071C728.886 74.5483 729.015 73.841 729.015 72.6851C729.015 71.5119 728.972 70.6924 728.886 70.2266C728.817 69.7435 728.687 69.2518 728.498 68.7515C728.101 67.6473 727.419 67.0952 726.453 67.0952C725.504 67.0952 724.754 67.2591 724.202 67.5869C722.977 68.346 722.088 70.3646 721.536 73.6426ZM751.193 49.9116L749.02 66.4482C749.882 64.8438 750.805 63.6188 751.789 62.7734C752.789 61.9108 753.902 61.4795 755.127 61.4795C756.369 61.4795 757.404 61.6865 758.232 62.1006C759.061 62.4974 759.733 63.0322 760.251 63.7051C760.786 64.3607 761.226 65.1543 761.571 66.0859C762.157 67.7422 762.451 70.0109 762.451 72.8921C762.451 75.756 762.252 78.1886 761.855 80.1899C761.476 82.1912 761.139 83.7181 760.846 84.7705C760.553 85.8057 760.156 86.8753 759.656 87.9795C759.173 89.0837 758.621 90.0067 758 90.7485C756.585 92.4393 754.92 93.2847 753.005 93.2847C751.107 93.2847 749.736 92.8879 748.89 92.0942C748.045 91.2834 747.32 90.0671 746.716 88.4453L746.432 92.2236C746.397 92.6722 746.181 92.9051 745.785 92.9224L740.557 93.1035C740.178 93.069 739.988 92.9051 739.988 92.6118L744.801 50.0928C744.836 49.8512 744.888 49.6787 744.957 49.5752C745.043 49.4717 745.207 49.4113 745.448 49.394L750.521 49.2129C750.969 49.2646 751.193 49.4976 751.193 49.9116ZM755.929 73.6167C755.929 69.4933 754.825 67.4316 752.617 67.4316C751.651 67.4316 750.866 67.8802 750.262 68.7773C749.658 69.6572 749.132 71.4342 748.683 74.1084C748.252 76.7826 748.036 78.7321 748.036 79.957C748.036 81.182 748.045 81.9583 748.062 82.2861C748.079 82.6139 748.114 83.0539 748.166 83.606C748.217 84.1408 748.312 84.598 748.45 84.9775C748.588 85.3398 748.769 85.7021 748.994 86.0645C749.442 86.8236 750.167 87.2031 751.167 87.2031C752.168 87.2031 752.962 86.7632 753.548 85.8833C754.135 84.9862 754.583 83.7957 754.894 82.312C755.584 79.1375 755.929 76.2391 755.929 73.6167ZM791.668 89.4805C790.098 92.0166 788.2 93.2847 785.975 93.2847C782.99 93.2847 780.945 91.7492 779.841 88.6782C779.237 87.022 778.936 84.7619 778.936 81.8979C778.936 79.0168 779.125 76.5755 779.505 74.5742C779.902 72.5729 780.247 71.0547 780.54 70.0195C780.833 68.9671 781.222 67.8888 781.705 66.7847C782.205 65.6805 782.766 64.7575 783.387 64.0156C784.801 62.3249 786.587 61.4795 788.744 61.4795C790.331 61.4795 791.547 61.859 792.393 62.6182C793.238 63.3773 793.954 64.5073 794.541 66.0083L796.016 50.0928C796.067 49.6442 796.3 49.4113 796.714 49.394L801.787 49.2129C802.218 49.2646 802.434 49.4976 802.434 49.9116L797.646 92.2236C797.594 92.6722 797.37 92.9051 796.973 92.9224L791.771 93.1035C791.409 93.069 791.228 92.9051 791.228 92.6118L791.668 89.4805ZM785.457 81.1475C785.457 85.2708 786.561 87.3325 788.77 87.3325C789.736 87.3325 790.521 86.8926 791.125 86.0127C791.728 85.1156 792.246 83.3299 792.677 80.6558C793.126 77.9816 793.35 76.0321 793.35 74.8071C793.35 73.5822 793.341 72.8058 793.324 72.478C793.307 72.1502 793.272 71.7189 793.221 71.1841C793.169 70.632 793.074 70.1748 792.936 69.8125C792.798 69.4329 792.617 69.0534 792.393 68.6738C791.944 67.932 791.219 67.561 790.219 67.561C789.218 67.561 788.424 68.0096 787.838 68.9067C787.251 69.7866 786.794 70.9684 786.466 72.4521C785.793 75.6266 785.457 78.5251 785.457 81.1475ZM807.04 88.1606C806.643 87.1255 806.367 86.1076 806.212 85.1069C806.074 84.089 806.005 82.7002 806.005 80.9404C806.005 79.1807 806.195 77.0068 806.574 74.4189C807.834 65.7926 811.75 61.4795 818.323 61.4795C820.859 61.4795 822.8 62.3507 824.146 64.0933C825.492 65.8358 826.165 68.0959 826.165 70.8735C826.165 73.6512 825.992 76.3512 825.647 78.9736C825.595 79.4395 825.328 79.681 824.845 79.6982L812.061 80.1382C812.043 80.397 812.035 80.742 812.035 81.1733C812.035 83.1229 812.371 84.667 813.044 85.8057C813.734 86.9443 814.769 87.5137 816.149 87.5137C817.53 87.5137 818.806 87.3153 819.979 86.9185C821.17 86.5044 821.869 86.2974 822.076 86.2974C822.283 86.2974 822.464 86.3664 822.619 86.5044C822.774 86.6424 822.852 86.8322 822.852 87.0737L822.334 91.6284C822.317 91.8872 822.265 92.0597 822.179 92.146C822.11 92.215 821.964 92.2926 821.739 92.3789C819.652 92.9827 817.642 93.2847 815.709 93.2847C813.777 93.2847 812.276 93.0518 811.207 92.5859C810.137 92.1201 809.274 91.5249 808.619 90.8003C807.98 90.0584 807.454 89.1785 807.04 88.1606ZM812.682 73.6426L812.449 75.2988L819.203 74.9624C819.496 74.9451 819.686 74.8934 819.772 74.8071C820.031 74.5483 820.161 73.841 820.161 72.6851C820.161 71.5119 820.118 70.6924 820.031 70.2266C819.962 69.7435 819.833 69.2518 819.643 68.7515C819.246 67.6473 818.565 67.0952 817.599 67.0952C816.65 67.0952 815.899 67.2591 815.347 67.5869C814.122 68.346 813.234 70.3646 812.682 73.6426ZM840.45 84.5376L846.376 62.5146C846.479 62.1178 846.712 61.9108 847.075 61.8936L852.509 61.7124C852.941 61.7469 853.156 61.9712 853.156 62.3853L842.624 92.2236C842.468 92.6549 842.244 92.8879 841.951 92.9224L836.646 93.1035C836.318 93.0863 836.128 92.9224 836.076 92.6118L832.039 62.5146C832.091 62.1178 832.306 61.9108 832.686 61.8936L837.784 61.7124C838.181 61.7297 838.397 61.9539 838.431 62.3853L840.45 84.5376ZM856.831 88.1606C856.434 87.1255 856.158 86.1076 856.003 85.1069C855.865 84.089 855.796 82.7002 855.796 80.9404C855.796 79.1807 855.986 77.0068 856.365 74.4189C857.625 65.7926 861.541 61.4795 868.114 61.4795C870.65 61.4795 872.591 62.3507 873.937 64.0933C875.283 65.8358 875.956 68.0959 875.956 70.8735C875.956 73.6512 875.783 76.3512 875.438 78.9736C875.386 79.4395 875.119 79.681 874.636 79.6982L861.852 80.1382C861.834 80.397 861.826 80.742 861.826 81.1733C861.826 83.1229 862.162 84.667 862.835 85.8057C863.525 86.9443 864.56 87.5137 865.94 87.5137C867.321 87.5137 868.597 87.3153 869.771 86.9185C870.961 86.5044 871.66 86.2974 871.867 86.2974C872.074 86.2974 872.255 86.3664 872.41 86.5044C872.565 86.6424 872.643 86.8322 872.643 87.0737L872.125 91.6284C872.108 91.8872 872.056 92.0597 871.97 92.146C871.901 92.215 871.755 92.2926 871.53 92.3789C869.443 92.9827 867.433 93.2847 865.5 93.2847C863.568 93.2847 862.067 93.0518 860.998 92.5859C859.928 92.1201 859.065 91.5249 858.41 90.8003C857.771 90.0584 857.245 89.1785 856.831 88.1606ZM862.473 73.6426L862.24 75.2988L868.994 74.9624C869.287 74.9451 869.477 74.8934 869.563 74.8071C869.822 74.5483 869.952 73.841 869.952 72.6851C869.952 71.5119 869.909 70.6924 869.822 70.2266C869.753 69.7435 869.624 69.2518 869.434 68.7515C869.037 67.6473 868.356 67.0952 867.39 67.0952C866.441 67.0952 865.69 67.2591 865.138 67.5869C863.913 68.346 863.025 70.3646 862.473 73.6426ZM892.13 49.9116L887.368 92.1978C887.334 92.4393 887.273 92.6118 887.187 92.7153C887.101 92.8188 886.937 92.8792 886.695 92.8965L881.494 93.1035C881.114 93.069 880.924 92.9051 880.924 92.6118L885.712 50.0928C885.746 49.8512 885.807 49.6787 885.893 49.5752C885.979 49.4717 886.143 49.4113 886.385 49.394L891.457 49.2129C891.906 49.2646 892.13 49.4976 892.13 49.9116ZM904.552 93.2847C901.498 93.2847 899.255 92.3703 897.823 90.5415C896.409 88.6955 895.701 86.0127 895.701 82.4932C895.701 80.8542 895.882 78.7148 896.245 76.0752C896.607 73.4355 896.943 71.5205 897.254 70.3301C897.564 69.1224 898.004 67.9492 898.574 66.8105C899.143 65.6546 899.816 64.7057 900.592 63.9639C902.3 62.3076 904.612 61.4795 907.528 61.4795C911.668 61.4795 914.351 62.9977 915.576 66.0342C916.232 67.6559 916.56 69.6227 916.56 71.9346C916.56 74.2292 916.378 76.61 916.016 79.0771C915.671 81.5443 915.343 83.373 915.033 84.5635C914.722 85.7367 914.282 86.8926 913.713 88.0312C913.161 89.1527 912.497 90.0843 911.72 90.8262C910.012 92.4652 907.623 93.2847 904.552 93.2847ZM909.132 81.9497C909.322 81.0353 909.564 79.3273 909.857 76.8257C910.167 74.3068 910.323 72.4435 910.323 71.2358C910.323 68.3029 909.262 66.8364 907.14 66.8364C906.139 66.8364 905.311 67.3109 904.655 68.2598C904.017 69.2087 903.499 70.7873 903.103 72.9956C902.309 77.4813 901.912 81.1216 901.912 83.9165C901.912 86.7114 902.965 88.1089 905.069 88.1089C906.07 88.1089 906.898 87.6344 907.554 86.6855C908.227 85.7194 908.753 84.1408 909.132 81.9497ZM920.157 104.956L924.97 62.5405C925.022 62.1265 925.238 61.9108 925.617 61.8936L930.819 61.7124C931.198 61.7469 931.388 61.9281 931.388 62.2559L930.871 65.6978C931.664 64.3348 932.527 63.291 933.458 62.5664C934.407 61.8418 935.468 61.4795 936.642 61.4795C937.832 61.4795 938.841 61.6865 939.669 62.1006C940.498 62.4974 941.17 63.0322 941.688 63.7051C942.223 64.3607 942.654 65.1543 942.982 66.0859C943.586 67.7422 943.888 70.0109 943.888 72.8921C943.888 75.756 943.689 78.1886 943.292 80.1899C942.913 82.1912 942.576 83.7181 942.283 84.7705C941.99 85.8057 941.593 86.8753 941.093 87.9795C940.61 89.0837 940.058 90.0067 939.437 90.7485C938.022 92.4393 936.357 93.2847 934.442 93.2847C932.527 93.2847 931.147 92.8792 930.301 92.0684C929.456 91.2575 928.731 90.0326 928.127 88.3936L926.601 104.775C926.583 105.189 926.359 105.405 925.928 105.422L920.855 105.603C920.39 105.586 920.157 105.37 920.157 104.956ZM937.392 73.6167C937.392 69.5106 936.288 67.4575 934.08 67.4575C933.079 67.4575 932.277 67.8975 931.673 68.7773C931.086 69.6572 930.569 71.4601 930.12 74.186C929.689 76.9119 929.473 78.8701 929.473 80.0605C929.473 81.2337 929.482 81.9842 929.499 82.312C929.516 82.6226 929.551 83.0539 929.603 83.606C929.654 84.158 929.749 84.6152 929.887 84.9775C930.025 85.3398 930.206 85.7021 930.431 86.0645C930.879 86.8236 931.604 87.2031 932.604 87.2031C933.605 87.2031 934.39 86.7632 934.959 85.8833C935.546 85.0034 936.003 83.8044 936.331 82.2861C937.038 79.0426 937.392 76.1528 937.392 73.6167ZM950.564 88.1606C950.168 87.1255 949.892 86.1076 949.736 85.1069C949.598 84.089 949.529 82.7002 949.529 80.9404C949.529 79.1807 949.719 77.0068 950.099 74.4189C951.358 65.7926 955.274 61.4795 961.848 61.4795C964.384 61.4795 966.325 62.3507 967.67 64.0933C969.016 65.8358 969.689 68.0959 969.689 70.8735C969.689 73.6512 969.516 76.3512 969.171 78.9736C969.12 79.4395 968.852 79.681 968.369 79.6982L955.585 80.1382C955.568 80.397 955.559 80.742 955.559 81.1733C955.559 83.1229 955.896 84.667 956.568 85.8057C957.258 86.9443 958.294 87.5137 959.674 87.5137C961.054 87.5137 962.331 87.3153 963.504 86.9185C964.694 86.5044 965.393 86.2974 965.6 86.2974C965.807 86.2974 965.988 86.3664 966.144 86.5044C966.299 86.6424 966.376 86.8322 966.376 87.0737L965.859 91.6284C965.842 91.8872 965.79 92.0597 965.704 92.146C965.635 92.215 965.488 92.2926 965.264 92.3789C963.176 92.9827 961.166 93.2847 959.234 93.2847C957.302 93.2847 955.801 93.0518 954.731 92.5859C953.661 92.1201 952.799 91.5249 952.143 90.8003C951.505 90.0584 950.979 89.1785 950.564 88.1606ZM956.206 73.6426L955.973 75.2988L962.728 74.9624C963.021 74.9451 963.211 74.8934 963.297 74.8071C963.556 74.5483 963.685 73.841 963.685 72.6851C963.685 71.5119 963.642 70.6924 963.556 70.2266C963.487 69.7435 963.357 69.2518 963.167 68.7515C962.771 67.6473 962.089 67.0952 961.123 67.0952C960.174 67.0952 959.424 67.2591 958.872 67.5869C957.647 68.346 956.758 70.3646 956.206 73.6426ZM992.074 68.3115L989.305 68.0269C987.062 68.0269 985.182 68.4754 983.664 69.3726L981.102 92.1978C981.033 92.6291 980.817 92.862 980.455 92.8965L975.227 93.1035C974.847 93.069 974.658 92.9051 974.658 92.6118L978.074 62.5146C978.143 62.1351 978.358 61.9281 978.721 61.8936L983.767 61.7124C984.233 61.7297 984.466 61.9539 984.466 62.3853L984.155 65.0508C985.259 63.9294 986.329 63.0581 987.364 62.437C988.399 61.7987 989.435 61.4795 990.47 61.4795C991.522 61.4795 992.324 61.5226 992.876 61.6089C993.239 61.6779 993.42 61.9194 993.42 62.3335C993.42 63.5239 993.222 65.2923 992.825 67.6387C992.738 68.0872 992.488 68.3115 992.074 68.3115ZM998.751 93.2847C997.63 93.2847 996.724 92.931 996.034 92.2236C995.361 91.499 995.024 90.5846 995.024 89.4805C995.024 88.359 995.473 87.3584 996.37 86.4785C997.285 85.5986 998.302 85.1587 999.424 85.1587C1000.56 85.1587 1001.48 85.5124 1002.17 86.2197C1002.86 86.9271 1003.2 87.8415 1003.2 88.9629C1003.2 90.0843 1002.74 91.085 1001.83 91.9648C1000.92 92.8447 999.89 93.2847 998.751 93.2847Z" fill="white"/>
</svg>
